<?xml version="1.0" encoding="UTF-8" standalone="no"?>
<svg
   width="16"
   height="16"
   fill="currentColor"
   class="bi bi-telephone-inbound-fill"
   viewBox="0 0 16 16"
   version="1.1"
   id="svg11929"
   sodipodi:docname="icon.svg"
   inkscape:version="1.2.2 (b0a8486541, 2022-12-01)"
   xmlns:inkscape="http://www.inkscape.org/namespaces/inkscape"
   xmlns:sodipodi="http://sodipodi.sourceforge.net/DTD/sodipodi-0.dtd"
   xmlns="http://www.w3.org/2000/svg"
   xmlns:svg="http://www.w3.org/2000/svg">
  <defs
     id="defs11933" />
  <sodipodi:namedview
     id="namedview11931"
     pagecolor="#ffffff"
     bordercolor="#000000"
     borderopacity="0.25"
     inkscape:showpageshadow="2"
     inkscape:pageopacity="0.0"
     inkscape:pagecheckerboard="0"
     inkscape:deskcolor="#d1d1d1"
     showgrid="false"
     inkscape:zoom="7.375"
     inkscape:cx="8.6779661"
     inkscape:cy="28.20339"
     inkscape:window-width="1696"
     inkscape:window-height="1059"
     inkscape:window-x="0"
     inkscape:window-y="32"
     inkscape:window-maximized="1"
     inkscape:current-layer="svg11929" />
  <path
     fill-rule="evenodd"
     d="M 4.2426437,3.3979494 C 4.6987004,2.9425786 5.4505575,2.9895336 5.8464139,3.4981081 L 6.9493898,4.9150787 C 7.1515508,5.175 7.2228295,5.5135738 7.1429482,5.8330988 L 6.8068325,7.1787911 c -0.035096,0.141766 0.00637,0.2915686 0.1093759,0.395105 l 1.5097559,1.509756 c 0.103665,0.1032163 0.253761,0.1447026 0.3957194,0.1093759 L 10.166761,8.8569121 c 0.319503,-0.079414 0.657779,-0.00809 0.918021,0.1935585 l 1.41697,1.1023624 c 0.509396,0.396334 0.556097,1.149061 0.100155,1.604384 l -0.63536,0.635363 c -0.454709,0.454708 -1.134313,0.654411 -1.767834,0.431359 C 8.5769225,12.254068 7.1045676,11.325707 5.8912701,10.107976 4.673617,8.894855 3.7452611,7.4227178 3.1753072,5.8011466 2.9528686,5.1682411 3.1525719,4.4880215 3.6072806,4.0333127 Z"
     id="path11927"
     style="fill:#008080;fill-opacity:1;stroke:none;stroke-width:0.614471;stroke-opacity:1"
     sodipodi:nodetypes="ccccccccccccscccsc" />
  <g
     id="g13797"
     transform="matrix(0.95639002,0,0,0.95639002,0.35132916,0.34792372)"
     style="fill:#008080">
    <path
       d="M 8.515,1.019 A 7,7 0 0 0 8,1 V 0 a 8,8 0 0 1 0.589,0.022 z m 2.004,0.45 A 7,7 0 0 0 9.534,1.17 L 9.753,0.194 q 0.576,0.129 1.126,0.342 z m 1.37,0.71 A 7,7 0 0 0 11.45,1.909 l 0.493,-0.87 a 8,8 0 0 1 0.979,0.654 L 12.307,2.482 A 7,7 0 0 0 11.889,2.18 Z m 1.834,1.79 A 7,7 0 0 0 13.07,3.173 l 0.724,-0.69 q 0.406,0.429 0.747,0.91 z m 0.744,1.352 A 7,7 0 0 0 14.253,4.853 l 0.893,-0.45 a 8,8 0 0 1 0.45,1.088 l -0.95,0.313 A 7,7 0 0 0 14.467,5.321 m 0.53,2.507 a 7,7 0 0 0 -0.1,-1.025 l 0.985,-0.17 q 0.1,0.58 0.116,1.17 z m -0.131,1.538 q 0.05,-0.254 0.081,-0.51 l 0.993,0.123 a 8,8 0 0 1 -0.23,1.155 L 14.746,9.867 q 0.069,-0.247 0.12,-0.501 m -0.952,2.379 Q 14.19,11.309 14.4,10.837 l 0.914,0.405 q -0.24,0.54 -0.555,1.038 z M 12.95,12.95 q 0.183,-0.183 0.35,-0.378 l 0.758,0.653 a 8,8 0 0 1 -0.401,0.432 z"
       id="path13602"
       style="fill:#008080" />
    <path
       d="m 8,1 a 7,7 0 1 0 4.95,11.95 l 0.707,0.707 A 8.001,8.001 0 1 1 8,0 Z"
       id="path13604"
       style="fill:#008080" />
  </g>
</svg>
